# xmcd CD database file
#
# Track frame offsets:
#	150
#	14162
#	28072
#	49930
#	62997
#	75725
#	88530
#	110780
#	123315
#	137370
#	149050
#	158677
#	169182
#	180860
#	193805
#	207330
#	221710
#	234597
#	245487
#	257962
#
# Disc length: 3630 seconds
#
# Revision: 0
# Processed by: cddbd v1.4PL0 Copyright (c) Steve Scherf et al.
# Submitted via: CDex 1.50
#
DISCID=2d0e2c14
DTITLE=Various Artist - The Definitive Blues Album CD1
DYEAR=1997
DGENRE=Blues
TTITLE0=Etta James -I Just Want to Make Love to You
TTITLE1=Howlin' Wolf - Smokestack Lightnin'
TTITLE2=Muddy Waters - Hoochie Coochie Man
TTITLE3=Buddy Guy - Let Me Love You Baby
TTITLE4=Little Walter - Boom Boom
TTITLE5=Mitty Collier - I Had a Talk With My Man Last Night
TTITLE6=Billy Stewart - Summertime
TTITLE7=Bo Diddley - I'm a Man
TTITLE8=Little Milton - If Walls Could Talk
TTITLE9=Tony Clark - The Entertainer
TTITLE10=T.V. Slim - Flat Foot Sam
TTITLE11=J.B. Lenoir - Mama Talk To Your Daughter
TTITLE12=Jimmy Witherspoon - T.W.A.
TTITLE13=Laura Lee - Dirty Old Man
TTITLE14=Koko Taylor - Wang Dang Doodle
TTITLE15=Otis Rush - So Many Roads
TTITLE16=Wiilie Mabon - Seventh Son
TTITLE17=Sugar Boy Crawford - Jock-A-Mo
TTITLE18=Jimmy McCracklin - The Walk
TTITLE19=Lowell Fulson - Reconsider Baby
EXTD=YEAR: 1997
EXTT0=
EXTT1=
EXTT2=
EXTT3=
EXTT4=
EXTT5=
EXTT6=
EXTT7=
EXTT8=
EXTT9=
EXTT10=
EXTT11=
EXTT12=
EXTT13=
EXTT14=
EXTT15=
EXTT16=
EXTT17=
EXTT18=
EXTT19=
PLAYORDER=
